<mxfile host="app.diagrams.net" modified="2020-10-12T05:28:25.685Z" agent="5.0 (Windows NT 10.0; Win64; x64) AppleWebKit/537.36 (KHTML, like Gecko) Chrome/79.0.3945.88 Safari/537.36" etag="Lyyze3KGJFFOTyqYGh0_" version="13.6.2" type="github">
  <diagram id="qaQ_jxGQrBobi2QMMdlr" name="第 1 页">
    <mxGraphModel dx="1422" dy="762" grid="1" gridSize="10" guides="1" tooltips="1" connect="1" arrows="1" fold="1" page="1" pageScale="1" pageWidth="827" pageHeight="1169" math="0" shadow="0">
      <root>
        <mxCell id="0" />
        <mxCell id="1" parent="0" />
        <mxCell id="NKz9cJXUlMGwyhb0HI-4-1" value="" style="shape=cylinder2;whiteSpace=wrap;html=1;boundedLbl=1;backgroundOutline=1;size=15;" vertex="1" parent="1">
          <mxGeometry x="200" y="260" width="60" height="80" as="geometry" />
        </mxCell>
        <mxCell id="NKz9cJXUlMGwyhb0HI-4-2" value="" style="triangle;whiteSpace=wrap;html=1;" vertex="1" parent="1">
          <mxGeometry x="450" y="230" width="60" height="80" as="geometry" />
        </mxCell>
        <mxCell id="NKz9cJXUlMGwyhb0HI-4-3" value="" style="shape=tape;whiteSpace=wrap;html=1;" vertex="1" parent="1">
          <mxGeometry x="510" y="460" width="120" height="100" as="geometry" />
        </mxCell>
        <mxCell id="NKz9cJXUlMGwyhb0HI-4-4" value="Actor" style="shape=umlActor;verticalLabelPosition=bottom;verticalAlign=top;html=1;outlineConnect=0;" vertex="1" parent="1">
          <mxGeometry x="310" y="520" width="30" height="60" as="geometry" />
        </mxCell>
      </root>
    </mxGraphModel>
  </diagram>
</mxfile>
